<svg fill="none" height="130" viewBox="0 0 130 132" width="130" xmlns="http://www.w3.org/2000/svg"><g fill="var(--color-brand)"><path d="M63.5734 0.428192C63.0227 0.665772 58.968 2.18627 54.563 3.80182C50.1579 5.36985 42.0485 8.36336 36.5422 10.4065C31.0358 12.4497 24.0778 15.0156 21.0243 16.1085C18.0208 17.2013 14.9673 18.3417 14.2665 18.5793C13.5657 18.8644 10.1117 20.1473 6.50751 21.5253L0 23.9486L0.0500578 26.0868C0.100116 28.7002 0.700809 37.7758 1.00116 41.0544C1.10127 42.3373 1.35156 45.3308 1.50173 47.7066C1.65191 50.0349 1.90219 53.1709 2.00231 54.5964C2.10243 56.0219 2.35271 59.253 2.50289 61.7238C2.65306 64.1947 2.90335 67.1882 3.00347 68.3761C3.15364 69.564 3.35387 72.5575 3.50404 75.0283C4.40508 88.5229 5.20601 97.0757 5.65653 97.2658C5.85676 97.3133 8.91028 99.0714 12.5144 101.21C16.1186 103.348 19.973 105.629 21.1744 106.341C22.3758 107.007 24.6284 108.337 26.1802 109.287C31.0859 112.233 42.499 118.933 43.8506 119.693C44.5514 120.073 46.7539 121.356 48.7563 122.544C54.3127 125.823 54.7131 126.06 60.2695 129.102L65.4255 132L70.5314 129.006C73.2846 127.391 83.8467 121.166 94.0085 115.179C104.12 109.145 112.93 103.918 113.631 103.538C121.24 99.1189 124.694 96.7906 124.694 96.0779C124.744 94.9375 125.445 86.5747 125.645 84.5315C125.745 83.6287 125.945 80.9203 126.146 78.592C126.496 73.6979 126.796 69.2789 127.147 65.5251C127.397 62.9117 127.697 58.4452 128.148 52.6958C128.648 45.4734 129.049 40.009 129.149 38.441C129.249 37.5382 129.449 33.8795 129.65 30.3633L130 23.9011L125.295 22.1905C115.133 18.3892 100.966 13.1625 98.3635 12.2122C96.8618 11.642 94.9596 10.9292 94.1086 10.5966C93.3077 10.264 89.0027 8.64846 84.5976 7.08043C80.1925 5.5124 76.1378 4.0394 75.5872 3.80182C73.8852 3.04156 65.0751 -0.0469667 64.8248 0.000549316C64.6746 0.000549316 64.124 0.190612 63.5734 0.428192ZM72.4336 5.60743C82.345 9.26616 86.8502 11.0243 86.8502 11.4044C86.8502 11.5944 85.6989 12.2122 84.2472 12.7823C81.2938 13.9702 79.9923 14.0653 62.0716 14.2078L49.0566 14.3029L45.953 13.0199C44.201 12.2597 42.7994 11.4994 42.7994 11.3093C42.7994 11.0243 63.3231 2.99405 64.4243 2.8515C64.6246 2.80399 68.2287 4.08692 72.4336 5.60743ZM37.243 15.9659L40.8972 17.2964L40.5968 21.3352C40.3966 23.5685 40.1463 26.3244 39.9461 27.5123C39.7959 28.7002 39.6457 29.8881 39.6457 30.2207C39.6457 30.7434 34.69 33.0717 31.9869 33.8795C30.8856 34.2121 23.6773 31.2661 13.3154 26.3244L8.55988 24.0912L13.3154 22.1905C17.9207 20.2899 32.7878 14.7305 33.2884 14.683C33.4386 14.683 35.1906 15.2532 37.243 15.9659ZM99.8652 15.9659C100.816 16.346 101.868 16.7262 102.118 16.7737C102.418 16.8687 103.169 17.1538 103.87 17.3914C104.571 17.6765 107.624 18.8169 110.628 19.9098C118.637 22.8082 120.889 23.7585 120.639 24.1862C120.389 24.5663 114.482 27.3698 104.02 32.0738C98.8641 34.4021 99.8152 34.4496 92.757 31.7887L89.8537 30.6959L89.8036 28.5101C89.8036 27.3222 89.7035 25.8968 89.6034 25.3741C89.5033 24.8514 89.3531 22.8557 89.253 20.9076L89.1028 17.3914L92.3566 16.061C95.7104 14.683 96.6115 14.683 99.8652 15.9659ZM79.6919 17.9141C80.6931 18.2942 80.643 18.0566 81.0936 25.4691L81.444 30.8384H64.9249H48.4059L48.556 27.6073C48.9064 18.7694 48.9565 18.2467 49.7574 17.9616C50.9087 17.5339 78.5907 17.4864 79.6919 17.9141ZM15.6681 36.3028L26.7809 41.482V46.5187V51.6029L22.6762 54.8815C20.4236 56.6871 17.2699 59.158 15.618 60.4409L12.6646 62.6741L9.86138 61.2012C5.4563 58.9679 5.90682 60.2983 5.00578 46.7563C4.8556 44.6656 4.60531 41.6721 4.45514 40.104C3.90451 34.2121 3.80439 30.7909 4.15479 30.981C4.35502 31.076 9.51097 33.4518 15.6681 36.3028ZM125.645 36.6354C125.445 39.3438 125.245 42.8125 125.144 44.3805C125.044 45.9485 124.794 49.7973 124.644 52.9334C124.243 59.253 124.293 59.158 120.089 61.2962C117.786 62.4841 116.334 62.3415 114.282 60.6785C113.581 60.0608 110.728 57.875 107.975 55.7843L102.969 52.0306L103.219 47.2315C103.319 44.6181 103.519 42.1948 103.62 41.8621C103.92 41.0544 123.693 31.8363 125.295 31.7887C125.745 31.7887 125.845 32.9291 125.645 36.6354ZM85.5487 36.0652C87.6511 36.9205 89.4532 37.7758 89.6034 37.9658C89.7536 38.2034 86.0993 40.1041 81.494 42.2898C76.8387 44.428 71.3323 46.9939 69.1798 47.9917C64.6746 50.0824 65.9761 50.32 55.3138 45.4734C51.0589 43.5252 45.6527 41.1019 43.35 40.0565L39.1452 38.2034L42.9496 36.5404L46.7539 34.8298L64.2742 34.6872L81.7443 34.5922L85.5487 36.0652ZM47.9553 51.3653L60.3697 57.1623L60.2695 72.0348C60.1694 83.3436 59.9692 86.9073 59.5187 86.9073C59.1683 86.9073 57.3662 86.052 55.464 85.0067C52.01 83.1535 51.7097 82.7734 47.9053 76.4538C47.3546 75.551 45.4024 72.3199 43.5503 69.3264C41.6481 66.3329 39.0451 62.0564 37.6935 59.8707L35.2407 55.8318L35.0404 50.7001C34.9403 47.8967 34.9904 45.5684 35.1906 45.5684C35.3908 45.5684 41.1475 48.1818 47.9553 51.3653ZM95.1097 48.3718C95.0096 48.8945 94.8595 50.7476 94.8094 52.5057C94.7093 55.4042 94.459 56.1645 92.4567 59.348C91.2052 61.2962 89.6034 63.9096 88.9026 65.145C88.2018 66.3804 85.3985 70.9895 82.7455 75.3609L77.8398 83.3911L74.2357 85.2443C72.2333 86.2896 70.3312 87.1924 70.0809 87.2874C69.5302 87.43 69.33 57.78 69.8306 57.3048C69.9807 57.2098 75.5872 54.5014 82.295 51.2703C93.7582 45.8535 94.5591 45.5684 94.9095 46.4712C95.1598 46.9939 95.2099 47.8492 95.1097 48.3718ZM39.7459 72.605C43.9007 79.4948 47.3046 85.2918 47.3046 85.4343C47.3046 85.7669 37.0427 93.0369 34.4397 94.5574L32.8879 95.5077L29.6342 90.376C25.8298 84.2464 21.625 77.4041 19.1221 73.0802L17.2699 69.8966L20.1733 67.3782C21.7751 65.9528 24.8286 63.4819 26.9811 61.8189C30.2349 59.348 31.0358 58.9204 31.5864 59.4431C31.9368 59.7757 35.5911 65.7152 39.7459 72.605ZM104.621 63.1968C110.327 67.5208 112.43 69.4214 112.28 70.0866C111.929 71.4646 97.5626 95.4127 97.062 95.4602C96.5114 95.4602 87.6011 89.8058 84.2472 87.2874L82.3951 85.9095L83.6966 83.6762C86.7 78.4495 95.7104 63.672 97.2622 61.3437C98.764 59.0629 99.0142 58.8729 99.7651 59.4431C100.216 59.8232 102.418 61.4863 104.621 63.1968ZM10.412 70.4193C12.8148 71.7022 13.6157 72.5575 15.2676 75.2184C16.3689 77.024 17.2699 78.5445 17.2699 78.592C17.2699 78.687 18.1209 80.1125 19.1721 81.7281C20.2734 83.3911 21.675 85.7194 22.3758 86.9073C23.0766 88.0952 24.9288 91.1362 26.4806 93.6546L29.2838 98.2636V102.302C29.2838 104.583 29.1336 106.389 28.9334 106.389C28.6831 106.389 26.6307 105.201 24.278 103.775C21.9253 102.35 19.3724 100.877 18.5214 100.449C14.767 98.5962 8.55988 94.2248 8.4097 93.322C8.35965 92.7993 8.15941 90.7561 8.00924 88.808C7.85907 86.8598 7.60878 84.2939 7.50866 83.106C7.40855 81.9181 7.15826 78.592 7.00809 75.7411C6.80786 72.8426 6.55757 70.1342 6.45745 69.659C6.05699 68.4711 7.1082 68.6612 10.412 70.4193ZM123.092 73.4603C122.992 75.7886 122.792 78.8296 122.692 80.2551C122.541 81.6806 122.291 85.1017 122.091 87.8576C121.891 90.6136 121.74 93.2269 121.69 93.7021C121.64 94.2723 118.587 96.363 112.38 99.9742C107.274 102.968 102.869 105.629 102.518 105.866C101.167 107.007 100.866 106.341 100.866 102.35V98.3112L106.223 89.3781C109.126 84.484 111.879 79.97 112.229 79.3048C112.63 78.6395 113.681 76.8339 114.632 75.2659C116.034 72.8901 116.835 72.1298 119.488 70.7044C121.19 69.754 122.792 69.0413 122.992 69.1363C123.142 69.2314 123.192 71.1795 123.092 73.4603ZM56.8156 95.5552C59.8691 97.2183 60.0693 97.4559 60.1694 99.1189C60.6199 107.814 60.67 124.445 60.1694 124.445C59.2183 124.445 37.8437 111.853 37.5934 111.14C37.4432 110.76 37.243 108.622 37.0928 106.389L36.8425 102.35L40.9472 99.8792C50.3581 94.1773 52.1101 93.2269 52.8109 93.4645C53.2114 93.6071 55.0135 94.5574 56.8156 95.5552ZM86.0993 98.1686L93.3077 102.35L93.1074 104.251C93.0073 105.296 92.9573 107.339 92.9072 108.812L92.8571 111.426L82.2449 117.65C76.3881 121.024 71.1321 124.065 70.5314 124.35C69.5302 124.873 69.5302 124.825 69.3801 111.188L69.2799 97.5509L73.1844 95.5552C75.3369 94.4624 77.4894 93.6546 77.99 93.7496C78.4405 93.8447 82.0947 95.8403 86.0993 98.1686Z"></path><path d="M63.8237 21.0026C59.2184 22.8557 57.3162 23.7585 57.3162 24.0911C57.3162 24.4713 60.8202 25.9443 64.124 26.9421C65.6758 27.4173 67.9284 26.752 72.0331 24.6138L73.4348 23.8536L70.7817 22.7607C65.1752 20.4799 65.1252 20.4799 63.8237 21.0026Z"></path><path d="M27.9823 75.551C28.0824 78.2119 28.2826 80.3976 28.3827 80.4927C29.484 81.3004 35.0404 84.0564 35.5911 84.0564C36.7424 84.0564 36.392 74.6482 35.2406 74.3156C34.8402 74.173 33.1382 73.3177 31.5364 72.4149C29.9846 71.5121 28.4328 70.7519 28.1825 70.7519C27.8822 70.7519 27.8321 72.7 27.9823 75.551Z"></path><path d="M97.8629 72.7951L94.1086 74.8382L93.9584 79.6849C93.7582 85.1967 93.3076 84.9592 98.7639 82.2507C101.367 80.9678 101.868 80.4926 101.918 79.3998C102.218 73.3652 102.218 70.7519 101.968 70.7519C101.767 70.7519 99.9153 71.6547 97.8629 72.7951Z"></path></g></svg>
