<?xml version="1.0" encoding="UTF-8" standalone="no"?>
<!-- Created with Inkscape (http://www.inkscape.org/) -->

<svg
   xmlns:dc="http://purl.org/dc/elements/1.1/"
   xmlns:cc="http://creativecommons.org/ns#"
   xmlns:rdf="http://www.w3.org/1999/02/22-rdf-syntax-ns#"
   xmlns:svg="http://www.w3.org/2000/svg"
   xmlns="http://www.w3.org/2000/svg"
   xmlns:sodipodi="http://sodipodi.sourceforge.net/DTD/sodipodi-0.dtd"
   xmlns:inkscape="http://www.inkscape.org/namespaces/inkscape"
   width="410mm"
   height="140mm"
   viewBox="0 0 410 140"
   version="1.1"
   id="svg986"
   inkscape:version="0.92.4 (5da689c313, 2019-01-14)"
   sodipodi:docname="shadow_loves_nix.svg"
   inkscape:export-filename="/home/nover/Documents/Git/shadow-linux-community/public/images/shadow_loves_linux.png"
   inkscape:export-xdpi="108.85715"
   inkscape:export-ydpi="108.85715">
  <defs
     id="defs980" />
  <sodipodi:namedview
     id="base"
     pagecolor="#ffffff"
     bordercolor="#666666"
     borderopacity="1.0"
     inkscape:pageopacity="0.0"
     inkscape:pageshadow="2"
     inkscape:zoom="0.14202768"
     inkscape:cx="-1154.1292"
     inkscape:cy="134.04874"
     inkscape:document-units="mm"
     inkscape:current-layer="layer1"
     showgrid="false"
     inkscape:snap-global="false"
     fit-margin-top="0"
     fit-margin-left="0"
     fit-margin-right="0"
     fit-margin-bottom="0"
     inkscape:window-width="1920"
     inkscape:window-height="1080"
     inkscape:window-x="0"
     inkscape:window-y="479"
     inkscape:window-maximized="1" />
  <metadata
     id="metadata983">
    <rdf:RDF>
      <cc:Work
         rdf:about="">
        <dc:format>image/svg+xml</dc:format>
        <dc:type
           rdf:resource="http://purl.org/dc/dcmitype/StillImage" />
        <dc:title />
      </cc:Work>
    </rdf:RDF>
  </metadata>
  <g
     inkscape:label="Calque 1"
     inkscape:groupmode="layer"
     id="layer1"
     transform="translate(270,-157)">
    <g
       transform="matrix(-0.2974748,0,0,0.2974748,195.38776,65.017912)"
       id="g3017"
       inkscape:export-xdpi="108"
       inkscape:export-ydpi="108" />
    <g
       transform="matrix(11.666667,0,0,11.666667,-270,157)"
       id="Objet_dynamique_vectoriel"
       style="fill:#000000"
       inkscape:export-xdpi="108"
       inkscape:export-ydpi="108">
      <path
         inkscape:connector-curvature="0"
         id="XMLID_1_"
         class="st0"
         d="M 6,0 C 2.7,0 0,2.7 0,6 0,7.8 0.8,9.3 2,10.4 1.9,10.2 1.9,10 1.9,9.8 c 0,-1.2 1,-2.2 2.2,-2.2 1.2,0 2.2,1 2.2,2.2 0,1 -0.6,1.8 -1.5,2.1 C 5.2,12 5.6,12 6,12 9.3,12 12,9.3 12,6 12,2.7 9.3,0 6,0"
         style="fill:#000000" />
    </g>
    <path
       inkscape:connector-curvature="0"
       d="m -40.907363,197 c -8.44698,0 -15.80005,5.08759 -19.08901,12.45254 C -63.285333,202.09489 -70.638413,197 -79.085393,197 -90.61849,197 -100,206.45985 -100,218.08027 c 0,26.20433 37.518797,47.78096 39.119807,48.68606 0.27529,0.15339 0.57231,0.23367 0.87657,0.23367 0.30427,0 0.60853,-0.0803 0.87658,-0.23367 1.59377,-0.9051 39.12704,-22.48173 39.12704,-48.68606 C -19.993003,206.45985 -29.374263,197 -40.907363,197 Z"
       style="fill:#db4437;stroke-width:0.7271781"
       id="path2"
       inkscape:export-xdpi="108"
       inkscape:export-ydpi="108" />
    <path
       style="color:#000000;clip-rule:nonzero;display:inline;overflow:visible;visibility:visible;opacity:1;isolation:auto;mix-blend-mode:normal;color-interpolation:sRGB;color-interpolation-filters:linearRGB;solid-color:#000000;solid-opacity:1;fill:#5277c3;fill-opacity:1;fill-rule:evenodd;stroke:none;stroke-width:0.89889926;stroke-linecap:butt;stroke-linejoin:round;stroke-miterlimit:4;stroke-dasharray:none;stroke-dashoffset:0;stroke-opacity:1;color-rendering:auto;image-rendering:auto;shape-rendering:auto;text-rendering:auto;enable-background:accumulate"
       d="M 42.71265,228.72715 76.811586,296.83051 61.14099,297 52.0374,278.70317 l -9.16856,18.19905 -7.78613,-0.003 -3.98785,-7.94351 13.06242,-25.89652 -9.27265,-18.60454 z"
       id="path4861"
       inkscape:connector-curvature="0"
       sodipodi:nodetypes="cccccccccc"
       inkscape:export-xdpi="108"
       inkscape:export-ydpi="108" />
    <path
       style="color:#000000;clip-rule:nonzero;display:inline;overflow:visible;visibility:visible;opacity:1;isolation:auto;mix-blend-mode:normal;color-interpolation:sRGB;color-interpolation-filters:linearRGB;solid-color:#000000;solid-opacity:1;fill:#7ebae4;fill-opacity:1;fill-rule:evenodd;stroke:none;stroke-width:0.89889926;stroke-linecap:butt;stroke-linejoin:round;stroke-miterlimit:4;stroke-dasharray:none;stroke-dashoffset:0;stroke-opacity:1;color-rendering:auto;image-rendering:auto;shape-rendering:auto;text-rendering:auto;enable-background:accumulate"
       d="M 55.02028,200.67467 20.91557,268.77416 12.95297,253.21182 22.1444,234.97346 3.89033,234.91816 0,227.14188 l 3.97265,-7.95362 25.98276,0.0946 9.33803,-18.56101 z"
       id="use4863"
       inkscape:connector-curvature="0"
       sodipodi:nodetypes="cccccccccc"
       inkscape:export-xdpi="108"
       inkscape:export-ydpi="108" />
    <path
       style="color:#000000;clip-rule:nonzero;display:inline;overflow:visible;visibility:visible;opacity:1;isolation:auto;mix-blend-mode:normal;color-interpolation:sRGB;color-interpolation-filters:linearRGB;solid-color:#000000;solid-opacity:1;fill:#7ebae4;fill-opacity:1;fill-rule:evenodd;stroke:none;stroke-width:0.89889926;stroke-linecap:butt;stroke-linejoin:round;stroke-miterlimit:4;stroke-dasharray:none;stroke-dashoffset:0;stroke-opacity:1;color-rendering:auto;image-rendering:auto;shape-rendering:auto;text-rendering:auto;enable-background:accumulate"
       d="m 57.63669,255.11237 68.20364,0.003 -7.70798,15.73183 -18.295019,-0.0585 9.085489,18.25431 -3.89579,7.77265 -7.960503,0.0104 -12.920345,-25.99108 -18.610676,-0.0435 z"
       id="use4865"
       inkscape:connector-curvature="0"
       sodipodi:nodetypes="cccccccccc"
       inkscape:export-xdpi="108"
       inkscape:export-ydpi="108" />
    <path
       style="color:#000000;clip-rule:nonzero;display:inline;overflow:visible;visibility:visible;opacity:1;isolation:auto;mix-blend-mode:normal;color-interpolation:sRGB;color-interpolation-filters:linearRGB;solid-color:#000000;solid-opacity:1;fill:#7ebae4;fill-opacity:1;fill-rule:evenodd;stroke:none;stroke-width:0.89889926;stroke-linecap:butt;stroke-linejoin:round;stroke-miterlimit:4;stroke-dasharray:none;stroke-dashoffset:0;stroke-opacity:1;color-rendering:auto;image-rendering:auto;shape-rendering:auto;text-rendering:auto;enable-background:accumulate"
       d="M 97.33361,225.27284 63.234688,157.16949 78.905266,157 l 9.103594,18.29683 9.168566,-18.19905 7.786134,0.003 3.98786,7.94352 -13.062433,25.89654 9.272653,18.60454 z"
       id="use4867"
       inkscape:connector-curvature="0"
       sodipodi:nodetypes="cccccccccc"
       inkscape:export-xdpi="108"
       inkscape:export-ydpi="108" />
    <path
       sodipodi:nodetypes="cccccccccc"
       inkscape:connector-curvature="0"
       id="path4873"
       d="M 42.71265,228.72715 76.811586,296.83051 61.14099,297 52.0374,278.70317 l -9.16856,18.19905 -7.78613,-0.003 -3.98785,-7.94351 13.06242,-25.89652 -9.27265,-18.60454 z"
       style="color:#000000;clip-rule:nonzero;display:inline;overflow:visible;visibility:visible;opacity:1;isolation:auto;mix-blend-mode:normal;color-interpolation:sRGB;color-interpolation-filters:linearRGB;solid-color:#000000;solid-opacity:1;fill:#5277c3;fill-opacity:1;fill-rule:evenodd;stroke:none;stroke-width:0.89889926;stroke-linecap:butt;stroke-linejoin:round;stroke-miterlimit:4;stroke-dasharray:none;stroke-dashoffset:0;stroke-opacity:1;color-rendering:auto;image-rendering:auto;shape-rendering:auto;text-rendering:auto;enable-background:accumulate"
       inkscape:export-xdpi="108"
       inkscape:export-ydpi="108" />
    <path
       sodipodi:nodetypes="cccccccccc"
       inkscape:connector-curvature="0"
       id="use4875"
       d="m 82.318879,198.71551 -68.203649,-0.003 7.70797,-15.73183 18.29502,0.0585 -9.08548,-18.25435 3.89579,-7.77265 7.9605,-0.0103 12.92035,25.99111 18.610665,0.0436 z"
       style="color:#000000;clip-rule:nonzero;display:inline;overflow:visible;visibility:visible;opacity:1;isolation:auto;mix-blend-mode:normal;color-interpolation:sRGB;color-interpolation-filters:linearRGB;solid-color:#000000;solid-opacity:1;fill:#5277c3;fill-opacity:1;fill-rule:evenodd;stroke:none;stroke-width:0.89889926;stroke-linecap:butt;stroke-linejoin:round;stroke-miterlimit:4;stroke-dasharray:none;stroke-dashoffset:0;stroke-opacity:1;color-rendering:auto;image-rendering:auto;shape-rendering:auto;text-rendering:auto;enable-background:accumulate"
       inkscape:export-xdpi="108"
       inkscape:export-ydpi="108" />
    <path
       sodipodi:nodetypes="cccccccccc"
       inkscape:connector-curvature="0"
       id="use4877"
       d="m 84.979714,253.31082 34.104726,-68.09947 7.96261,15.56234 -9.19144,18.23838 18.25406,0.0553 3.89033,7.77628 -3.97264,7.95365 -25.98276,-0.0946 -9.33803,18.56104 z"
       style="color:#000000;clip-rule:nonzero;display:inline;overflow:visible;visibility:visible;opacity:1;isolation:auto;mix-blend-mode:normal;color-interpolation:sRGB;color-interpolation-filters:linearRGB;solid-color:#000000;solid-opacity:1;fill:#5277c3;fill-opacity:1;fill-rule:evenodd;stroke:none;stroke-width:0.89889926;stroke-linecap:butt;stroke-linejoin:round;stroke-miterlimit:4;stroke-dasharray:none;stroke-dashoffset:0;stroke-opacity:1;color-rendering:auto;image-rendering:auto;shape-rendering:auto;text-rendering:auto;enable-background:accumulate"
       inkscape:export-xdpi="108"
       inkscape:export-ydpi="108" />
  </g>
</svg>
